<?xml version="1.0" encoding="UTF-8"?>
<svg width="32" height="16" viewBox="0 0 32 16" xmlns="http://www.w3.org/2000/svg">
<rect opacity="0.9" x="20" y="3" width="11" height="12" rx="1" fill="#758690"/>
<rect x="21" y="4" width="9" height="10" fill="white"/>
<path d="M19 0H21V8H19V0Z" fill="#4AA11D"/>
<path d="M24 3V5L16 5L16 3L24 3Z" fill="#4AA11D"/>
<rect opacity="0.5" x="20" y="8" width="1" height="1" fill="white"/>
<rect opacity="0.5" x="24" y="3" width="1" height="1" fill="white"/>
<path opacity="0.6" d="M24.6981 10.2043C24.6981 9.70251 24.7388 9.63082 24.8646 9.33333C24.9904 9.03584 25.2198 8.74373 25.5527 8.45699C25.8894 8.16667 26.1132 7.9319 26.2242 7.75269C26.3352 7.56989 26.3907 7.37814 26.3907 7.17742C26.3907 6.57168 26.1021 6.26882 25.525 6.26882C25.2512 6.26882 25.0311 6.35125 24.8646 6.51613C24.7018 6.67742 24.6167 6.90143 24.6093 7.18817H23C23.0074 6.50358 23.2349 5.96774 23.6826 5.58065C24.1339 5.19355 24.7481 5 25.525 5C26.3093 5 26.9179 5.18459 27.3507 5.55376C27.7836 5.91935 28 6.43728 28 7.10753C28 7.41219 27.9297 7.70072 27.7891 7.97312C27.6485 8.24194 27.4025 8.54122 27.0511 8.87097L26.6016 9.28495C26.3204 9.5466 26.1595 9.85305 26.1188 10.2043H24.6981ZM24.515 12.1828C24.515 11.9427 24.5982 11.7455 24.7647 11.5914C24.9349 11.4337 25.1513 11.3548 25.414 11.3548C25.6767 11.3548 25.8912 11.4337 26.0577 11.5914C26.2279 11.7455 26.313 11.9427 26.313 12.1828C26.313 12.4194 26.2297 12.6147 26.0633 12.7688C25.9005 12.9229 25.6841 13 25.414 13C25.1439 13 24.9256 12.9229 24.7592 12.7688C24.5964 12.6147 24.515 12.4194 24.515 12.1828Z" fill="black"/>
</svg>
