<?xml version="1.0" encoding="UTF-8"?>
<svg width="85" height="85" viewBox="0 0 85 85" xmlns="http://www.w3.org/2000/svg">
<g clip-path="url(#clip0)">
<path fill-rule="evenodd" clip-rule="evenodd" d="M79.995 50.397L34.7401 5.14214L14.9411 24.9411C9.90796 29.9743 8.92909 37.5265 12.0045 43.5395C11.7932 43.6816 11.5925 43.8462 11.4056 44.033L8.57717 46.8614C7.01508 48.4235 7.01508 50.9562 8.57717 52.5183L34.033 77.9741C35.5951 79.5362 38.1278 79.5362 39.6899 77.9741L42.5183 75.1457C42.8867 74.7774 43.1681 74.355 43.3628 73.9042C49.0331 75.9835 55.6445 74.7474 60.196 70.196L79.995 50.397ZM68.6813 48.9828L36.1543 16.4558L25.1126 27.4976C22.3127 30.2975 22.2892 35.0219 24.7177 39.1003C24.6128 39.1876 24.5049 39.2865 24.3936 39.3977L18.5736 45.2178C17.7024 46.0889 17.9063 47.7053 19.0291 48.8281L37.3255 67.1245C38.4482 68.2472 40.0646 68.4512 40.9358 67.58L46.7558 61.76C46.9939 61.5219 47.1754 61.299 47.3079 61.0882C51.063 62.814 55.1264 62.5376 57.6395 60.0245L68.6813 48.9828Z" fill="#C0DB67"/>
<path d="M12.1127 67.3675C13.6748 65.8054 16.2075 65.8054 17.7696 67.3675C19.3317 68.9296 19.3317 71.4623 17.7696 73.0244L9.28428 81.5097C7.72218 83.0718 5.18952 83.0718 3.62742 81.5097C2.06533 79.9476 2.06533 77.4149 3.62742 75.8528L12.1127 67.3675Z" fill="#C0DB67"/>
<path d="M54.5391 3.72792C56.4917 1.7753 59.6576 1.7753 61.6102 3.72792C63.5628 5.68054 63.5628 8.84637 61.6102 10.799L51.0036 21.4056L43.9325 14.3345L54.5391 3.72792Z" fill="#C0DB67"/>
<path d="M74.3381 23.5269C76.2907 21.5743 79.4566 21.5743 81.4092 23.5269C83.3618 25.4795 83.3618 28.6454 81.4092 30.598L70.8026 41.2046L63.7315 34.1335L74.3381 23.5269Z" fill="#C0DB67"/>
</g>
<defs>
<clipPath id="clip0">
<rect width="85" height="85" fill="white"/>
</clipPath>
</defs>
</svg>
