<?xml version="1.0" encoding="UTF-8"?>
<svg width="96" height="16" viewBox="0 0 96 16" xmlns="http://www.w3.org/2000/svg">
<g clip-path="url(#clip0)">
<path fill-rule="evenodd" clip-rule="evenodd" d="M84.761 9.03822C84.3434 8.2676 84.1063 7.38492 84.1063 6.44685C84.1063 3.43864 86.5449 1 89.5532 1C92.5614 1 95 3.43864 95 6.44685C95 9.45506 92.5614 11.8937 89.5532 11.8937C88.6151 11.8937 87.7324 11.6566 86.9618 11.239L86.9513 11.2496L83.6567 14.5442C83.0489 15.1519 82.0636 15.1519 81.4558 14.5442C80.8481 13.9364 80.8481 12.9511 81.4558 12.3433L84.7504 9.04871L84.761 9.03822ZM89.5532 10.3375C87.4044 10.3375 85.6626 8.59559 85.6626 6.44687C85.6626 4.29814 87.4044 2.55626 89.5532 2.55626C91.7019 2.55626 93.4438 4.29814 93.4438 6.44687C93.4438 8.59559 91.7019 10.3375 89.5532 10.3375Z" fill="#9D7B62"/>
<circle r="3.89061" transform="matrix(-1 0 0 1 89.5532 6.44682)" fill="white" fill-opacity="0.6"/>
<path d="M3.23765 2.7682C3.24625 2.75565 3.25428 2.74401 3.26362 2.73201C3.46711 2.47066 4.06744 2 4.375 2H6.875C7.20552 2 7.68687 2.30775 7.91669 2.61596C7.97929 2.69992 8.0371 2.78833 8.10993 2.86359L9.25 4.04167L1 4.55208C1 4.55208 1.5 3.875 2 3.875C2.46232 3.875 3.13839 2.91315 3.23765 2.7682Z" fill="#BB8744"/>
<path d="M1 4.55208L9.25 4.04167H14C14.5523 4.04167 15 4.49871 15 5.0625V12.9792C15 13.543 14.5523 14 14 14H2C1.44772 14 1 13.543 1 12.9792V4.55208Z" fill="#BB8744"/>
<path d="M3.89553 3.60617C3.90484 3.59367 3.91381 3.58163 3.92394 3.56978C4.09968 3.36424 4.60431 3 4.86364 3H6.48485C6.75488 3 7.14355 3.2236 7.34612 3.45582C7.41664 3.53666 7.47895 3.62551 7.55656 3.69958L8.5 4.6L9 5H2C2 5 2.42424 4.46939 2.84848 4.46939C3.23627 4.46939 3.80128 3.73278 3.89553 3.60617Z" fill="#FFE069"/>
<path d="M2 5H14V6H2V5Z" fill="#FFE069"/>
<path d="M2 7H14V13H2V7Z" fill="url(#paint0_linear)"/>
<path d="M35.2377 2.7682C35.2462 2.75565 35.2543 2.74401 35.2636 2.73201C35.4671 2.47066 36.0674 2 36.375 2H38.875C39.2055 2 39.6869 2.30775 39.9167 2.61596C39.9793 2.69992 40.0371 2.78833 40.1099 2.86359L41.25 4.04167L33 4.55208C33 4.55208 33.5 3.875 34 3.875C34.4623 3.875 35.1384 2.91315 35.2377 2.7682Z" fill="#BB8744"/>
<path d="M33 4.55208L41.25 4.04167H46C46.5523 4.04167 47 4.49871 47 5.0625V12.9792C47 13.543 46.5523 14 46 14H34C33.4477 14 33 13.543 33 12.9792V4.55208Z" fill="#BB8744"/>
<path d="M35.8955 3.60617C35.9048 3.59367 35.9138 3.58163 35.9239 3.56978C36.0997 3.36424 36.6043 3 36.8636 3H38.4848C38.7549 3 39.1436 3.2236 39.3461 3.45582C39.4166 3.53666 39.479 3.62551 39.5566 3.69958L40.5 4.6L41 5H34C34 5 34.4242 4.46939 34.8485 4.46939C35.2363 4.46939 35.8013 3.73278 35.8955 3.60617Z" fill="#FFE069"/>
<path d="M34 5H46V6H34V5Z" fill="#FFE069"/>
<path d="M34 7H46V13H34V7Z" fill="url(#paint1_linear)"/>
<path d="M47.6541 9.70714C48.0446 9.31661 48.0446 8.68345 47.6541 8.29292L46.0683 6.70711C45.6778 6.31658 45.0446 6.31658 44.6541 6.70711L42.8667 8.49449L45.8667 11.4945L47.6541 9.70714Z" fill="#4C5165"/>
<path d="M43.4728 7.86124L40.4825 10.8516L40.9999 13.3612L43.5096 13.8787L46.4999 10.8884L43.4728 7.86124Z" fill="#56C264"/>
<path d="M38.1268 16.2344L43.5 13.8612L42.1268 13.2344L42.6268 11.7344L41.1268 12.2344L40.5 10.8612L38.1268 16.2344Z" fill="#93734E"/>
<path d="M39 15.3612L42.5 13.8612L41.7333 13.1862L42.0125 12.3488L41.175 12.6279L40.5 11.8612L39 15.3612Z" fill="#FFC857"/>
<path d="M38 16.3612L40 15.3612V14.8612V14.3612H39.5H39L38 16.3612Z" fill="black"/>
<path d="M19.2377 2.7682C19.2462 2.75565 19.2543 2.74401 19.2636 2.73201C19.4671 2.47066 20.0674 2 20.375 2H22.875C23.2055 2 23.6869 2.30775 23.9167 2.61596C23.9793 2.69992 24.0371 2.78833 24.1099 2.86359L25.25 4.04167L17 4.55208C17 4.55208 17.5 3.875 18 3.875C18.4623 3.875 19.1384 2.91315 19.2377 2.7682Z" fill="#BB8744"/>
<path d="M17 4.55208L25.25 4.04167H30C30.5523 4.04167 31 4.49871 31 5.0625V12.9792C31 13.543 30.5523 14 30 14H18C17.4477 14 17 13.543 17 12.9792V4.55208Z" fill="#BB8744"/>
<path d="M19.8955 3.60617C19.9048 3.59367 19.9138 3.58163 19.9239 3.56978C20.0997 3.36424 20.6043 3 20.8636 3H22.4848C22.7549 3 23.1436 3.2236 23.3461 3.45582C23.4166 3.53666 23.479 3.62551 23.5566 3.69958L24.5 4.6L25 5H18C18 5 18.4242 4.46939 18.8485 4.46939C19.2363 4.46939 19.8013 3.73278 19.8955 3.60617Z" fill="#FFE069"/>
<path d="M18 5H30V6H18V5Z" fill="#FFE069"/>
<path d="M18 7H30V13H18V7Z" fill="url(#paint2_linear)"/>
<path d="M51.2377 2.7682C51.2462 2.75565 51.2543 2.74401 51.2636 2.73201C51.4671 2.47066 52.0674 2 52.375 2H54.875C55.2055 2 55.6869 2.30775 55.9167 2.61596C55.9793 2.69992 56.0371 2.78833 56.1099 2.86359L57.25 4.04167L49 4.55208C49 4.55208 49.5 3.875 50 3.875C50.4623 3.875 51.1384 2.91315 51.2377 2.7682Z" fill="#BB8744"/>
<path d="M49 4.55208L57.25 4.04167H62C62.5523 4.04167 63 4.49871 63 5.0625V12.9792C63 13.543 62.5523 14 62 14H50C49.4477 14 49 13.543 49 12.9792V4.55208Z" fill="#BB8744"/>
<path d="M51.8955 3.60617C51.9048 3.59367 51.9138 3.58163 51.9239 3.56978C52.0997 3.36424 52.6043 3 52.8636 3H54.4848C54.7549 3 55.1436 3.2236 55.3461 3.45582C55.4166 3.53666 55.479 3.62551 55.5566 3.69958L56.5 4.6L57 5H50C50 5 50.4242 4.46939 50.8485 4.46939C51.2363 4.46939 51.8013 3.73278 51.8955 3.60617Z" fill="#FFE069"/>
<path d="M50 5H62V6H50V5Z" fill="#FFE069"/>
<path d="M50 7H62V13H50V7Z" fill="url(#paint3_linear)"/>
<circle cx="27.5" cy="11.5" r="4.5" fill="#A91513"/>
<circle cx="27.5" cy="11.5" r="3.5" fill="#DA2F2F"/>
<path d="M28.9142 9.37869L29.6213 10.0858L26.0858 13.6213L25.3787 12.9142L28.9142 9.37869Z" fill="white"/>
<path d="M29.6213 12.9142L28.9142 13.6213L25.3787 10.0858L26.0858 9.37869L29.6213 12.9142Z" fill="white"/>
<circle cx="59.5" cy="11.5" r="4.5" fill="#F52929"/>
<circle cx="59.5" cy="11.5" r="3.5" fill="#FFFFC7"/>
<rect x="61.6213" y="8.67157" width="1" height="7" transform="rotate(45 61.6213 8.67157)" fill="#F52929"/>
<path fill-rule="evenodd" clip-rule="evenodd" d="M79 3V5H65V3H69V2C69 1.73478 69.1054 1.48043 69.2929 1.29289C69.4804 1.10536 69.7348 1 70 1H74C74.2652 1 74.5196 1.10536 74.7071 1.29289C74.8946 1.48043 75 1.73478 75 2V3H79ZM67 13V6H77V13C77 13.5304 76.7893 14.0391 76.4142 14.4142C76.0391 14.7893 75.5304 15 75 15H69C68.4696 15 67.9609 14.7893 67.5858 14.4142C67.2107 14.0391 67 13.5304 67 13ZM71 8H70V12H71V8ZM74 8H73V12H74V8Z" fill="#343434"/>
</g>
<defs>
<linearGradient id="paint0_linear" x1="8" y1="7" x2="8" y2="13" gradientUnits="userSpaceOnUse">
<stop stop-color="#F9DF8B"/>
<stop offset="1" stop-color="#FFE069"/>
<stop offset="1" stop-color="#F2CE65"/>
</linearGradient>
<linearGradient id="paint1_linear" x1="40" y1="7" x2="40" y2="13" gradientUnits="userSpaceOnUse">
<stop stop-color="#F9DF8B"/>
<stop offset="1" stop-color="#FFE069"/>
<stop offset="1" stop-color="#F2CE65"/>
</linearGradient>
<linearGradient id="paint2_linear" x1="24" y1="7" x2="24" y2="13" gradientUnits="userSpaceOnUse">
<stop stop-color="#F9DF8B"/>
<stop offset="1" stop-color="#FFE069"/>
<stop offset="1" stop-color="#F2CE65"/>
</linearGradient>
<linearGradient id="paint3_linear" x1="56" y1="7" x2="56" y2="13" gradientUnits="userSpaceOnUse">
<stop stop-color="#F9DF8B"/>
<stop offset="1" stop-color="#FFE069"/>
<stop offset="1" stop-color="#F2CE65"/>
</linearGradient>
<clipPath id="clip0">
<rect width="96" height="16" fill="white"/>
</clipPath>
</defs>
</svg>
