<?xml version="1.0" encoding="UTF-8"?>
<svg width="128" height="128" viewBox="0 0 128 128" xmlns="http://www.w3.org/2000/svg">
<rect x="32" width="72" height="96" rx="8" fill="#BABABA"/>
<rect x="38" y="8" width="60" height="80" rx="2" fill="white"/>
<rect x="14" y="16" width="72" height="96" rx="8" fill="#898989"/>
<rect x="20" y="24" width="60" height="80" rx="2" fill="white"/>
<path d="M80 32H112V96H80V32Z" fill="#47970E"/>
<path d="M128 48V80L64 80L64 48L128 48Z" fill="#47970E"/>
<rect y="32" width="72" height="96" rx="8" fill="#6B6B6B"/>
<rect x="6" y="40" width="60" height="80" rx="2" fill="white"/>
<rect x="17" y="104" width="38" height="8" fill="#A8B6CA"/>
<rect x="17" y="48" width="38" height="48" rx="5" fill="#CFD5E2"/>
<path d="M46.5556 64.5C46.5556 70.299 41.8297 75 36 75C30.1703 75 25.4444 70.299 25.4444 64.5C25.4444 58.701 30.1703 54 36 54C41.8297 54 46.5556 58.701 46.5556 64.5Z" fill="#758AB3"/>
<path d="M17 91.3333C17 82.3127 24.3514 75 33.4198 75H38.5802C47.6486 75 55 82.3127 55 91.3333C55 93.9107 52.8996 96 50.3086 96H21.6914C19.1004 96 17 93.9107 17 91.3333Z" fill="#758AB3"/>
<path d="M88 40H104V88H88V40Z" fill="#D0E4BA"/>
<path d="M120 56V72L72 72L72 56L120 56Z" fill="#D0E4BA"/>
</svg>
