<?xml version="1.0" encoding="UTF-8"?>
<svg width="32" height="16" viewBox="0 0 32 16" xmlns="http://www.w3.org/2000/svg">
<rect x="6.5" y="7" width="2" height="2" fill="#D39E53"/>
<path fill-rule="evenodd" clip-rule="evenodd" d="M10.6948 6.93153C10.8909 6.49454 11 6.01001 11 5.5C11 3.567 9.433 2 7.5 2C5.567 2 4 3.567 4 5.5C4 6.01001 4.10908 6.49454 4.30519 6.93153C4.53439 6.66719 4.87267 6.5 5.25 6.5H9.75C10.1273 6.5 10.4656 6.66719 10.6948 6.93153Z" fill="#413724"/>
<circle cx="7.5" cy="5.5" r="2.5" fill="#ECB968"/>
<path d="M3 12.8889C3 10.7411 4.74111 9 6.88889 9H8.11111C10.2589 9 12 10.7411 12 12.8889V12.8889C12 13.5025 11.5025 14 10.8889 14H4.11111C3.49746 14 3 13.5025 3 12.8889V12.8889Z" fill="#3B92C1"/>
<path d="M7.5 11L6.5 9L8.5 9L7.5 11Z" fill="#F7F7F7"/>
<rect x="16" y="1" width="16" height="11" fill="#83735B"/>
<rect x="17" y="2" width="14" height="9" fill="white"/>
<g opacity="0.7">
<path d="M19 4H20V5H19V4Z" fill="#979ECE"/>
<path d="M21 4H26V5H21V4Z" fill="#979ECE"/>
<path d="M27 4H29V5H27V4Z" fill="#979ECE"/>
<path d="M19 8H22V9H19V8Z" fill="#979ECE"/>
<path d="M23 6H26V7H23V6Z" fill="#979ECE"/>
</g>
<path d="M26.209 12.2L27.5999 12.5374L26.871 15L26.209 14.3603L25 14.6626L26.209 12.2Z" fill="#215BE3"/>
<path d="M28.791 12.2L27.4001 12.5374L28.129 15L28.791 14.3603L30 14.6626L28.791 12.2Z" fill="#215BE3"/>
<circle cx="27.5" cy="10.5" r="2.5" fill="#B77700"/>
<circle cx="27.5" cy="10.5" r="1.5" fill="#FAD164"/>
</svg>
